<svg width="284px" height="71px" viewBox="0 0 284 71" version="1.1" xmlns="http://www.w3.org/2000/svg" xmlns:xlink="http://www.w3.org/1999/xlink">
    <title>Shape</title>
    <g id="CI/CD-services-round-up" stroke="none" stroke-width="1" fill="none" fill-rule="evenodd">
        <g id="Appcircle-dark-logo" transform="translate(0.431, 0)" fill="#000000" fill-rule="nonzero">
            <path d="M23.929,31.2515 C23.929,26.8404 21.24,24.3731 16.168,24.3731 C13.479,24.3731 10.62,25.1956 7.693,26.803 C7.591,26.8778 7.454,26.9151 7.319,26.9899 C6.297,27.588 5.004,27.1394 4.459,26.018 L3.03,23.0274 C2.485,21.906 2.893,20.4854 3.915,19.8873 C4.391,19.6256 4.766,19.4013 5.106,19.2144 C9.361,16.9341 13.071,15.9622 18.108,15.9622 C27.503,15.9622 32.983,21.1956 33.051,30.0926 L33.12,53.5312 C33.12,54.8023 32.166,55.8489 31.008,55.8489 L26.107,55.8489 C24.95,55.8489 23.997,54.8023 23.997,53.5312 L23.997,51.6995 C21.478,54.7275 17.598,56.2975 12.764,56.2975 C5.14,56.2975 0,51.1762 0,43.8866 C0,36.5971 5.106,31.9244 13.82,31.8496 L23.895,31.8496 L23.895,31.1768 L23.929,31.2515 Z M15.249,38.9148 C10.722,38.9148 8.816,40.2232 8.816,43.4007 C8.816,46.5781 11.097,48.4473 14.841,48.4473 C19.64,48.4473 23.487,45.681 23.929,42.0923 L23.929,38.9148 L15.249,38.9148 Z M58.239,16.0743 C68.484,16.0743 75.394,24.2236 75.394,36.3355 C75.394,48.4473 68.621,56.2975 58.375,56.2975 C53.303,56.2975 49.253,54.2042 46.564,50.3164 L46.564,67.7365 C46.564,69.0075 45.611,70.0541 44.454,70.0541 L39.416,70.0541 C38.259,70.0541 37.306,69.0075 37.306,67.7365 L37.306,18.6911 C37.306,17.4201 38.259,16.3734 39.416,16.3734 L44.454,16.3734 C45.611,16.3734 46.564,17.4201 46.564,18.6911 L46.564,22.0555 C49.219,18.1678 53.236,16.0743 58.239,16.0743 Z M56.299,47.4754 C61.983,47.4754 65.999,42.7652 65.999,36.0364 C65.999,29.3076 61.983,24.6723 56.299,24.6723 C50.614,24.6723 46.53,29.3824 46.53,36.0364 C46.53,42.6904 50.512,47.4754 56.299,47.4754 Z M100.718,16.0743 C110.963,16.0743 117.873,24.2236 117.873,36.3355 C117.873,48.4473 111.1,56.2975 100.854,56.2975 C95.782,56.2975 91.732,54.2042 89.043,50.3164 L89.043,67.7365 C89.043,69.0075 88.09,70.0541 86.933,70.0541 L81.895,70.0541 C80.738,70.0541 79.785,69.0075 79.785,67.7365 L79.785,18.6911 C79.785,17.4201 80.738,16.3734 81.895,16.3734 L86.933,16.3734 C88.09,16.3734 89.043,17.4201 89.043,18.6911 L89.043,22.0555 C91.698,18.1678 95.714,16.0743 100.718,16.0743 Z M98.778,47.4754 C104.462,47.4754 108.478,42.7652 108.478,36.0364 C108.478,29.3076 104.462,24.6723 98.778,24.6723 C93.094,24.6723 89.009,29.3824 89.009,36.0364 C89.009,42.6904 92.991,47.4754 98.778,47.4754 Z M148.235,27.8871 C146.125,26.018 143.469,25.0087 140.406,25.0087 C134.824,25.0087 130.978,29.5319 130.978,36.1485 C130.978,42.7652 134.79,47.438 140.406,47.438 C143.265,47.438 145.716,46.6903 147.622,45.2324 C147.894,45.0081 148.269,44.6717 148.643,44.2605 C149.426,43.438 150.651,43.3633 151.468,44.111 L154.158,46.5408 C155.077,47.3632 155.178,48.8211 154.43,49.793 C154.43,49.793 154.418,49.8055 154.396,49.8304 C153.817,50.578 153.306,51.1388 152.898,51.5126 C149.63,54.578 145.172,56.2228 139.93,56.2228 C129.106,56.2228 121.652,48.0735 121.652,36.1859 C121.652,24.2984 129.139,15.9996 140.065,15.9996 C145.886,15.9996 150.788,18.0556 154.123,21.8686 C154.872,22.7284 154.838,24.0367 154.089,24.8592 L151.196,27.8498 C150.413,28.6721 149.188,28.7095 148.37,27.9245 C148.336,27.8871 148.269,27.8498 148.235,27.8124 L148.235,27.8871 Z M164.845,0 C167.738,0 169.814,2.31769 169.814,5.56994 C169.814,8.82219 167.738,11.1398 164.845,11.1398 C161.951,11.1398 159.875,8.82219 159.875,5.56994 C159.875,2.31769 161.951,0 164.845,0 Z M162.326,16.3734 L167.364,16.3734 C168.521,16.3734 169.474,17.4201 169.474,18.6911 L169.474,53.606 C169.474,54.877 168.521,55.9237 167.364,55.9237 L162.326,55.9237 C161.169,55.9237 160.216,54.877 160.216,53.606 L160.216,18.6911 C160.216,17.4201 161.169,16.3734 162.326,16.3734 Z M193.334,16.2612 C193.334,16.2612 193.709,16.1865 193.913,16.1865 C195.071,16.037 196.126,16.9715 196.262,18.2425 C196.262,18.3173 196.262,18.4294 196.262,18.5042 L196.262,23.5507 C196.262,24.8218 195.343,25.8311 194.185,25.8685 C193.879,25.8685 193.641,25.8685 193.437,25.9058 C187.684,26.5039 184.145,30.7281 184.145,36.8962 L184.145,53.6807 C184.145,54.9518 183.191,55.9985 182.034,55.9985 L176.997,55.9985 C175.84,55.9985 174.886,54.9518 174.886,53.6807 L174.886,18.7659 C174.886,17.4948 175.84,16.4481 176.997,16.4481 L182.034,16.4481 C183.191,16.4481 184.145,17.4948 184.145,18.7659 L184.145,22.99 C186.221,19.2892 189.352,17.0462 193.334,16.2986 L193.334,16.2612 Z M224.071,28.0367 C223.594,27.588 223.186,27.2516 222.846,26.9899 C220.939,25.6816 218.692,25.0087 216.174,25.0087 C210.591,25.0087 206.746,29.5319 206.746,36.1485 C206.746,42.7652 210.558,47.438 216.174,47.438 C218.863,47.438 221.177,46.7651 223.015,45.4941 C223.39,45.2324 223.867,44.7839 224.411,44.2231 C225.194,43.4007 226.419,43.3633 227.237,44.111 L229.925,46.5408 C230.844,47.3632 230.947,48.8211 230.197,49.793 C230.197,49.793 230.186,49.8055 230.163,49.8304 C229.482,50.6903 228.904,51.3257 228.394,51.7743 C225.16,54.6901 220.803,56.2228 215.663,56.2228 C204.839,56.2228 197.385,48.0735 197.385,36.1859 C197.385,24.2984 204.874,15.9996 215.8,15.9996 C221.076,15.9996 225.568,17.6817 228.87,20.8218 C229.109,21.0461 229.415,21.3453 229.721,21.7191 C230.538,22.6536 230.504,24.1115 229.653,25.0087 L226.896,27.8498 C226.113,28.6721 224.887,28.7095 224.071,27.9245 L224.071,28.0367 Z M236.596,1.30838 L241.634,1.30838 C242.791,1.30838 243.744,2.35507 243.744,3.62607 L243.744,53.606 C243.744,54.877 242.791,55.9237 241.634,55.9237 L236.596,55.9237 C235.439,55.9237 234.486,54.877 234.486,53.606 L234.486,3.62607 C234.486,2.35507 235.439,1.30838 236.596,1.30838 Z M266.856,47.9987 C269.682,47.9987 272.37,47.0641 274.583,45.3072 C274.718,45.1951 274.855,45.0829 274.991,44.9708 C275.842,44.1858 277.102,44.2605 277.884,45.1577 L280.063,47.6249 C280.879,48.5594 280.846,50.0173 279.994,50.9145 C279.994,50.9145 279.96,50.9519 279.926,50.9893 C279.075,51.8117 278.394,52.4098 277.816,52.821 C274.549,55.1387 270.566,56.3349 266.141,56.3349 C254.977,56.3349 247.523,48.2604 247.523,36.2981 C247.523,24.3357 255.045,16.1117 265.937,16.1117 C276.829,16.1117 283.297,23.4386 283.364,36.4476 C283.364,36.7466 283.364,37.1205 283.364,37.6065 C283.364,38.8775 282.378,39.8494 281.254,39.8494 L257.087,39.8494 C258.278,44.9708 261.955,48.0735 266.891,48.0735 L266.856,47.9987 Z M274.787,32.7842 C274.48,27.4011 271.111,24.0741 265.972,24.0741 C261.138,24.0741 257.7,27.4011 256.815,32.7842 L274.787,32.7842 Z" id="Shape"></path>
        </g>
    </g>
</svg>