<?xml version="1.0" encoding="UTF-8"?>
<svg width="1423px" height="144px" viewBox="0 0 1423 144" version="1.1" xmlns="http://www.w3.org/2000/svg" xmlns:xlink="http://www.w3.org/1999/xlink">
    <title>Group</title>
    <g id="Marketing" stroke="none" stroke-width="1" fill="none" fill-rule="evenodd">
        <g id="Icon" transform="translate(566, -484)" fill-rule="nonzero">
            <g id="Group" transform="translate(-566, 484)">
                <path d="M41.600012,143.6 C27.066712,143.6 15.333312,140.733 6.400002,135 C2.133302,132.467 0,128.867 0,124.2 C0,121.533 0.733302,119.4 2.200002,117.8 C3.666702,116.067 5.466702,115.2 7.600002,115.2 C9.866712,115.2 13.000012,116.267 17.000012,118.4 C21.266712,120.4 25.133312,121.933 28.600012,123 C32.200012,124.067 36.733312,124.6 42.200012,124.6 C47.800012,124.6 52.133012,123.667 55.200012,121.8 C58.400012,119.933 60.000012,117.333 60.000012,114 C60.000012,111.733 59.333012,109.933 58.000012,108.6 C56.800012,107.267 54.533012,106.067 51.200012,105 C48.000012,103.8 43.066712,102.467 36.400012,101 C24.533312,98.6 16.000012,95.2 10.800012,90.8 C5.733302,86.4 3.200002,80.333 3.200002,72.6 C3.200002,66.733 4.933302,61.467 8.400002,56.8 C11.866712,52 16.600012,48.333 22.600012,45.8 C28.733312,43.133 35.666712,41.8 43.400012,41.8 C49.000012,41.8 54.400012,42.533 59.600012,44 C64.800012,45.333 69.467012,47.333 73.600012,50 C77.867012,52.667 80.000012,56.2 80.000012,60.6 C80.000012,63.267 79.267012,65.533 77.800012,67.4 C76.333012,69.133 74.533012,70 72.400012,70 C70.933012,70 69.467012,69.733 68.000012,69.2 C66.667012,68.533 64.933012,67.6 62.800012,66.4 C58.933012,64.4 55.600012,62.933 52.800012,62 C50.000012,60.933 46.533312,60.4 42.400012,60.4 C37.466712,60.4 33.533312,61.4 30.600012,63.4 C27.800012,65.4 26.400012,68.133 26.400012,71.6 C26.400012,74.933 27.866712,77.467 30.800012,79.2 C33.733312,80.933 39.400012,82.667 47.800012,84.4 C56.733012,86.267 63.733012,88.4 68.800012,90.8 C73.867012,93.2 77.467012,96.2 79.600012,99.8 C81.867012,103.4 83.000012,108 83.000012,113.6 C83.000012,122.667 79.200012,129.933 71.600012,135.4 C64.133012,140.867 54.133012,143.6 41.600012,143.6 Z M156.670012,143.6 C146.937012,143.6 138.337012,141.533 130.870012,137.4 C123.537012,133.267 117.870012,127.4 113.870012,119.8 C109.870012,112.2 107.870012,103.333 107.870012,93.2 C107.870012,83.067 109.937012,74.133 114.070012,66.4 C118.337012,58.533 124.270012,52.467 131.870012,48.2 C139.470012,43.933 148.204012,41.8 158.070012,41.8 C163.270012,41.8 168.470012,42.533 173.670012,44 C179.004012,45.467 183.670012,47.467 187.670012,50 C191.937012,52.8 194.070012,56.333 194.070012,60.6 C194.070012,63.533 193.337012,65.933 191.870012,67.8 C190.537012,69.533 188.737012,70.4 186.470012,70.4 C185.004012,70.4 183.470012,70.067 181.870012,69.4 C180.270012,68.733 178.670012,67.933 177.070012,67 C174.137012,65.267 171.337012,63.933 168.670012,63 C166.004012,61.933 162.937012,61.4 159.470012,61.4 C151.204012,61.4 144.804012,64.133 140.270012,69.6 C135.870012,74.933 133.670012,82.667 133.670012,92.8 C133.670012,102.8 135.870012,110.533 140.270012,116 C144.804012,121.333 151.204012,124 159.470012,124 C162.804012,124 165.737012,123.533 168.270012,122.6 C170.937012,121.533 173.870012,120.133 177.070012,118.4 C179.070012,117.2 180.804012,116.333 182.270012,115.8 C183.737012,115.133 185.204012,114.8 186.670012,114.8 C188.804012,114.8 190.604012,115.733 192.070012,117.6 C193.537012,119.467 194.270012,121.8 194.270012,124.6 C194.270012,126.867 193.737012,128.867 192.670012,130.6 C191.737012,132.2 190.137012,133.667 187.870012,135 C183.737012,137.667 178.937012,139.8 173.470012,141.4 C168.004012,142.867 162.404012,143.6 156.670012,143.6 Z M275.527012,42.2 C278.993012,41.933 281.727012,42.667 283.727012,44.4 C285.727012,46.133 286.727012,48.733 286.727012,52.2 C286.727012,55.8 285.860012,58.467 284.127012,60.2 C282.393012,61.933 279.260012,63.067 274.727012,63.6 L268.727012,64.2 C260.860012,65 255.060012,67.667 251.327012,72.2 C247.727012,76.733 245.927012,82.4 245.927012,89.2 L245.927012,131.2 C245.927012,135.067 244.727012,138.067 242.327012,140.2 C239.927012,142.2 236.927012,143.2 233.327012,143.2 C229.727012,143.2 226.727012,142.2 224.327012,140.2 C222.060012,138.067 220.927012,135.067 220.927012,131.2 L220.927012,53.8 C220.927012,50.067 222.060012,47.2 224.327012,45.2 C226.727012,43.2 229.660012,42.2 233.127012,42.2 C236.593012,42.2 239.393012,43.2 241.527012,45.2 C243.660012,47.067 244.727012,49.8 244.727012,53.4 L244.727012,61.4 C247.260012,55.533 250.993012,51 255.927012,47.8 C260.993012,44.6 266.593012,42.8 272.727012,42.4 L275.527012,42.2 Z M382.936012,115.2 C385.203012,115.2 387.003012,116.067 388.336012,117.8 C389.803012,119.533 390.536012,121.867 390.536012,124.8 C390.536012,128.933 388.069012,132.4 383.136012,135.2 C378.603012,137.733 373.469012,139.8 367.736012,141.4 C362.003012,142.867 356.536012,143.6 351.336012,143.6 C335.603012,143.6 323.136012,139.067 313.936012,130 C304.736012,120.933 300.136012,108.533 300.136012,92.8 C300.136012,82.8 302.136012,73.933 306.136012,66.2 C310.136012,58.467 315.736012,52.467 322.936012,48.2 C330.269012,43.933 338.536012,41.8 347.736012,41.8 C356.536012,41.8 364.203012,43.733 370.736012,47.6 C377.269012,51.467 382.336012,56.933 385.936012,64 C389.536012,71.067 391.336012,79.4 391.336012,89 C391.336012,94.733 388.803012,97.6 383.736012,97.6 L324.736012,97.6 C325.536012,106.8 328.136012,113.6 332.536012,118 C336.936012,122.267 343.336012,124.4 351.736012,124.4 C356.003012,124.4 359.736012,123.867 362.936012,122.8 C366.269012,121.733 370.003012,120.267 374.136012,118.4 C378.136012,116.267 381.069012,115.2 382.936012,115.2 Z M348.336012,59.4 C341.536012,59.4 336.069012,61.533 331.936012,65.8 C327.936012,70.067 325.536012,76.2 324.736012,84.2 L369.936012,84.2 C369.669012,76.067 367.669012,69.933 363.936012,65.8 C360.203012,61.533 355.003012,59.4 348.336012,59.4 Z M499.186012,115.2 C501.453012,115.2 503.253012,116.067 504.586012,117.8 C506.053012,119.533 506.786012,121.867 506.786012,124.8 C506.786012,128.933 504.319012,132.4 499.386012,135.2 C494.853012,137.733 489.719012,139.8 483.986012,141.4 C478.253012,142.867 472.786012,143.6 467.586012,143.6 C451.853012,143.6 439.386012,139.067 430.186012,130 C420.986012,120.933 416.386012,108.533 416.386012,92.8 C416.386012,82.8 418.386012,73.933 422.386012,66.2 C426.386012,58.467 431.986012,52.467 439.186012,48.2 C446.519012,43.933 454.786012,41.8 463.986012,41.8 C472.786012,41.8 480.453012,43.733 486.986012,47.6 C493.519012,51.467 498.586012,56.933 502.186012,64 C505.786012,71.067 507.586012,79.4 507.586012,89 C507.586012,94.733 505.053012,97.6 499.986012,97.6 L440.986012,97.6 C441.786012,106.8 444.386012,113.6 448.786012,118 C453.186012,122.267 459.586012,124.4 467.986012,124.4 C472.253012,124.4 475.986012,123.867 479.186012,122.8 C482.519012,121.733 486.253012,120.267 490.386012,118.4 C494.386012,116.267 497.319012,115.2 499.186012,115.2 Z M464.586012,59.4 C457.786012,59.4 452.319012,61.533 448.186012,65.8 C444.186012,70.067 441.786012,76.2 440.986012,84.2 L486.186012,84.2 C485.919012,76.067 483.919012,69.933 480.186012,65.8 C476.453012,61.533 471.253012,59.4 464.586012,59.4 Z M594.836012,41.8 C606.569012,41.8 615.303012,45.133 621.036012,51.8 C626.769012,58.467 629.636012,68.533 629.636012,82 L629.636012,131.2 C629.636012,134.933 628.503012,137.867 626.236012,140 C624.103012,142.133 621.103012,143.2 617.236012,143.2 C613.369012,143.2 610.303012,142.133 608.036012,140 C605.769012,137.867 604.636012,134.933 604.636012,131.2 L604.636012,83.4 C604.636012,75.8 603.169012,70.267 600.236012,66.8 C597.436012,63.333 592.969012,61.6 586.836012,61.6 C579.636012,61.6 573.836012,63.867 569.436012,68.4 C565.169012,72.933 563.036012,79 563.036012,86.6 L563.036012,131.2 C563.036012,134.933 561.903012,137.867 559.636012,140 C557.369012,142.133 554.303012,143.2 550.436012,143.2 C546.569012,143.2 543.503012,142.133 541.236012,140 C539.103012,137.867 538.036012,134.933 538.036012,131.2 L538.036012,53.8 C538.036012,50.333 539.169012,47.533 541.436012,45.4 C543.703012,43.267 546.769012,42.2 550.636012,42.2 C554.103012,42.2 556.903012,43.267 559.036012,45.4 C561.303012,47.4 562.436012,50.067 562.436012,53.4 L562.436012,58.8 C565.769012,53.333 570.236012,49.133 575.836012,46.2 C581.436012,43.267 587.769012,41.8 594.836012,41.8 Z M700.428012,143.6 C685.895012,143.6 674.161012,140.733 665.228012,135 C660.961012,132.467 658.828012,128.867 658.828012,124.2 C658.828012,121.533 659.561012,119.4 661.028012,117.8 C662.495012,116.067 664.295012,115.2 666.428012,115.2 C668.695012,115.2 671.828012,116.267 675.828012,118.4 C680.095012,120.4 683.961012,121.933 687.428012,123 C691.028012,124.067 695.561012,124.6 701.028012,124.6 C706.628012,124.6 710.961012,123.667 714.028012,121.8 C717.228012,119.933 718.828012,117.333 718.828012,114 C718.828012,111.733 718.161012,109.933 716.828012,108.6 C715.628012,107.267 713.361012,106.067 710.028012,105 C706.828012,103.8 701.895012,102.467 695.228012,101 C683.361012,98.6 674.828012,95.2 669.628012,90.8 C664.561012,86.4 662.028012,80.333 662.028012,72.6 C662.028012,66.733 663.761012,61.467 667.228012,56.8 C670.695012,52 675.428012,48.333 681.428012,45.8 C687.561012,43.133 694.495012,41.8 702.228012,41.8 C707.828012,41.8 713.228012,42.533 718.428012,44 C723.628012,45.333 728.295012,47.333 732.428012,50 C736.695012,52.667 738.828012,56.2 738.828012,60.6 C738.828012,63.267 738.095012,65.533 736.628012,67.4 C735.161012,69.133 733.361012,70 731.228012,70 C729.761012,70 728.295012,69.733 726.828012,69.2 C725.495012,68.533 723.761012,67.6 721.628012,66.4 C717.761012,64.4 714.428012,62.933 711.628012,62 C708.828012,60.933 705.361012,60.4 701.228012,60.4 C696.295012,60.4 692.361012,61.4 689.428012,63.4 C686.628012,65.4 685.228012,68.133 685.228012,71.6 C685.228012,74.933 686.695012,77.467 689.628012,79.2 C692.561012,80.933 698.228012,82.667 706.628012,84.4 C715.561012,86.267 722.561012,88.4 727.628012,90.8 C732.695012,93.2 736.295012,96.2 738.428012,99.8 C740.695012,103.4 741.828012,108 741.828012,113.6 C741.828012,122.667 738.028012,129.933 730.428012,135.4 C722.961012,140.867 712.961012,143.6 700.428012,143.6 Z M829.298012,41.8 C852.232012,41.8 863.698012,55.2 863.698012,82 L863.698012,131.2 C863.698012,134.933 862.565012,137.867 860.298012,140 C858.165012,142.133 855.165012,143.2 851.298012,143.2 C847.432012,143.2 844.365012,142.133 842.098012,140 C839.832012,137.867 838.698012,134.933 838.698012,131.2 L838.698012,82 C838.698012,74.933 837.232012,69.8 834.298012,66.6 C831.498012,63.267 827.032012,61.6 820.898012,61.6 C813.698012,61.6 807.898012,63.867 803.498012,68.4 C799.232012,72.933 797.098012,79 797.098012,86.6 L797.098012,131.2 C797.098012,134.933 795.965012,137.867 793.698012,140 C791.432012,142.133 788.365012,143.2 784.498012,143.2 C780.632012,143.2 777.565012,142.133 775.298012,140 C773.165012,137.867 772.098012,134.933 772.098012,131.2 L772.098012,11.6 C772.098012,8.1333 773.232012,5.3333 775.498012,3.2 C777.898012,1.0667 780.965012,0 784.698012,0 C788.432012,0 791.432012,1 793.698012,3 C795.965012,5 797.098012,7.7333 797.098012,11.2 L797.098012,57.8 C800.432012,52.6 804.832012,48.667 810.298012,46 C815.898012,43.2 822.232012,41.8 829.298012,41.8 Z M943.691012,143.6 C933.691012,143.6 924.891012,141.533 917.291012,137.4 C909.824012,133.267 904.024012,127.333 899.891012,119.6 C895.757012,111.867 893.691012,102.867 893.691012,92.6 C893.691012,82.333 895.757012,73.4 899.891012,65.8 C904.024012,58.067 909.824012,52.133 917.291012,48 C924.891012,43.867 933.691012,41.8 943.691012,41.8 C953.690012,41.8 962.420012,43.867 969.890012,48 C977.490012,52.133 983.290012,58.067 987.290012,65.8 C991.420012,73.4 993.490012,82.333 993.490012,92.6 C993.490012,102.867 991.420012,111.867 987.290012,119.6 C983.290012,127.333 977.490012,133.267 969.890012,137.4 C962.420012,141.533 953.690012,143.6 943.691012,143.6 Z M943.491012,124.2 C951.620012,124.2 957.820012,121.533 962.090012,116.2 C966.360012,110.867 968.490012,103 968.490012,92.6 C968.490012,82.333 966.360012,74.533 962.090012,69.2 C957.820012,63.733 951.690012,61 943.691012,61 C935.691012,61 929.491012,63.733 925.091012,69.2 C920.824012,74.533 918.691012,82.333 918.691012,92.6 C918.691012,103 920.824012,110.867 925.091012,116.2 C929.357012,121.533 935.491012,124.2 943.491012,124.2 Z M1074.34001,124.6 C1081.01001,125 1084.34001,128 1084.34001,133.6 C1084.34001,136.8 1083.01001,139.267 1080.34001,141 C1077.81001,142.6 1074.14001,143.267 1069.34001,143 L1063.94001,142.6 C1041.54001,141 1030.34001,129 1030.34001,106.6 L1030.34001,63 L1020.34001,63 C1016.74001,63 1013.94001,62.2 1011.94001,60.6 C1010.08001,59 1009.14001,56.667 1009.14001,53.6 C1009.14001,50.533 1010.08001,48.2 1011.94001,46.6 C1013.94001,45 1016.74001,44.2 1020.34001,44.2 L1030.34001,44.2 L1030.34001,25.8 C1030.34001,22.2 1031.48001,19.3333 1033.74001,17.2 C1036.01001,15.0667 1039.08001,14 1042.94001,14 C1046.68001,14 1049.68001,15.0667 1051.94001,17.2 C1054.21001,19.3333 1055.34001,22.2 1055.34001,25.8 L1055.34001,44.2 L1072.34001,44.2 C1075.94001,44.2 1078.68001,45 1080.54001,46.6 C1082.54001,48.2 1083.54001,50.533 1083.54001,53.6 C1083.54001,56.667 1082.54001,59 1080.54001,60.6 C1078.68001,62.2 1075.94001,63 1072.34001,63 L1055.34001,63 L1055.34001,108.4 C1055.34001,118.267 1059.88001,123.533 1068.94001,124.2 L1074.34001,124.6 Z" id="Shape" fill="#000000"></path>
                <path d="M1163.57001,41.8 C1172.11001,41.8 1179.64001,43.867 1186.17001,48 C1192.71001,52.133 1197.77001,58 1201.37001,65.6 C1205.11001,73.2 1206.97001,82.067 1206.97001,92.2 C1206.97001,102.333 1205.11001,111.333 1201.37001,119.2 C1197.77001,126.933 1192.64001,132.933 1185.97001,137.2 C1179.44001,141.467 1171.97001,143.6 1163.57001,143.6 C1156.51001,143.6 1150.17001,142.067 1144.57001,139 C1139.11001,135.933 1134.91001,131.667 1131.97001,126.2 L1131.97001,131.2 C1131.97001,134.8 1130.84001,137.667 1128.57001,139.8 C1126.31001,141.933 1123.31001,143 1119.57001,143 C1115.84001,143 1112.84001,141.933 1110.57001,139.8 C1108.44001,137.667 1107.37001,134.8 1107.37001,131.2 L1107.37001,11.6 C1107.37001,8.1333 1108.51001,5.3333 1110.77001,3.2 C1113.17001,1.0667 1116.24001,0 1119.97001,0 C1123.71001,0 1126.71001,1 1128.97001,3 C1131.24001,5 1132.37001,7.7333 1132.37001,11.2 L1132.37001,58.4 C1135.31001,53.067 1139.51001,49 1144.97001,46.2 C1150.44001,43.267 1156.64001,41.8 1163.57001,41.8 Z M1156.97001,124.2 C1164.84001,124.2 1170.97001,121.4 1175.37001,115.8 C1179.77001,110.2 1181.97001,102.333 1181.97001,92.2 C1181.97001,82.2 1179.77001,74.533 1175.37001,69.2 C1171.11001,63.867 1164.97001,61.2 1156.97001,61.2 C1148.97001,61.2 1142.77001,63.933 1138.37001,69.4 C1134.11001,74.733 1131.97001,82.467 1131.97001,92.6 C1131.97001,102.733 1134.11001,110.533 1138.37001,116 C1142.77001,121.467 1148.97001,124.2 1156.97001,124.2 Z M1282.09001,143.6 C1272.09001,143.6 1263.29001,141.533 1255.69001,137.4 C1248.22001,133.267 1242.42001,127.333 1238.29001,119.6 C1234.16001,111.867 1232.09001,102.867 1232.09001,92.6 C1232.09001,82.333 1234.16001,73.4 1238.29001,65.8 C1242.42001,58.067 1248.22001,52.133 1255.69001,48 C1263.29001,43.867 1272.09001,41.8 1282.09001,41.8 C1292.09001,41.8 1300.82001,43.867 1308.29001,48 C1315.89001,52.133 1321.69001,58.067 1325.69001,65.8 C1329.82001,73.4 1331.89001,82.333 1331.89001,92.6 C1331.89001,102.867 1329.82001,111.867 1325.69001,119.6 C1321.69001,127.333 1315.89001,133.267 1308.29001,137.4 C1300.82001,141.533 1292.09001,143.6 1282.09001,143.6 Z M1281.89001,124.2 C1290.02001,124.2 1296.22001,121.533 1300.49001,116.2 C1304.76001,110.867 1306.89001,103 1306.89001,92.6 C1306.89001,82.333 1304.76001,74.533 1300.49001,69.2 C1296.22001,63.733 1290.09001,61 1282.09001,61 C1274.09001,61 1267.89001,63.733 1263.49001,69.2 C1259.22001,74.533 1257.09001,82.333 1257.09001,92.6 C1257.09001,103 1259.22001,110.867 1263.49001,116.2 C1267.76001,121.533 1273.89001,124.2 1281.89001,124.2 Z M1412.74001,124.6 C1419.41001,125 1422.74001,128 1422.74001,133.6 C1422.74001,136.8 1421.41001,139.267 1418.74001,141 C1416.21001,142.6 1412.54001,143.267 1407.74001,143 L1402.34001,142.6 C1379.94001,141 1368.74001,129 1368.74001,106.6 L1368.74001,63 L1358.74001,63 C1355.14001,63 1352.34001,62.2 1350.34001,60.6 C1348.48001,59 1347.54001,56.667 1347.54001,53.6 C1347.54001,50.533 1348.48001,48.2 1350.34001,46.6 C1352.34001,45 1355.14001,44.2 1358.74001,44.2 L1368.74001,44.2 L1368.74001,25.8 C1368.74001,22.2 1369.88001,19.3333 1372.14001,17.2 C1374.41001,15.0667 1377.48001,14 1381.34001,14 C1385.08001,14 1388.08001,15.0667 1390.34001,17.2 C1392.61001,19.3333 1393.74001,22.2 1393.74001,25.8 L1393.74001,44.2 L1410.74001,44.2 C1414.34001,44.2 1417.08001,45 1418.94001,46.6 C1420.94001,48.2 1421.94001,50.533 1421.94001,53.6 C1421.94001,56.667 1420.94001,59 1418.94001,60.6 C1417.08001,62.2 1414.34001,63 1410.74001,63 L1393.74001,63 L1393.74001,108.4 C1393.74001,118.267 1398.28001,123.533 1407.34001,124.2 L1412.74001,124.6 Z" id="Shape" fill="#4E4E4E"></path>
            </g>
        </g>
    </g>
</svg>