
<svg width="200px" height="34.38px" viewBox="0 0 200 34.38" version="1.1" xmlns="http://www.w3.org/2000/svg" xmlns:xlink="http://www.w3.org/1999/xlink">
    <defs>
        <linearGradient x1="90.0687071%" y1="-5.99560862%" x2="-12.9294191%" y2="137.862637%" id="linearGradient-g54bv9a5_p-1">
            <stop stop-color="#00287A" stop-opacity="0" offset="0%"></stop>
            <stop stop-color="#00287A" offset="100%"></stop>
        </linearGradient>
        <linearGradient x1="90.0687071%" y1="-5.99560862%" x2="-12.9294191%" y2="137.862637%" id="linearGradient-g54bv9a5_p-2">
            <stop stop-color="#000000" stop-opacity="0" offset="0%"></stop>
            <stop stop-color="#000000" offset="100%"></stop>
        </linearGradient>
        <linearGradient x1="73.8878732%" y1="34.5912473%" x2="-30.865326%" y2="101.149563%" id="linearGradient-g54bv9a5_p-3">
            <stop stop-color="#00287A" stop-opacity="0" offset="0%"></stop>
            <stop stop-color="#00287A" offset="100%"></stop>
        </linearGradient>
        <linearGradient x1="73.8878732%" y1="34.5912473%" x2="-30.865326%" y2="101.149563%" id="linearGradient-g54bv9a5_p-4">
            <stop stop-color="#000000" stop-opacity="0" offset="0%"></stop>
            <stop stop-color="#000000" offset="100%"></stop>
        </linearGradient>
        <linearGradient x1="89.0760346%" y1="-12.1373276%" x2="-15.014437%" y2="153.29322%" id="linearGradient-g54bv9a5_p-5">
            <stop stop-color="#00287A" stop-opacity="0" offset="0%"></stop>
            <stop stop-color="#00287A" offset="100%"></stop>
        </linearGradient>
        <linearGradient x1="89.0760346%" y1="-12.1373276%" x2="-15.014437%" y2="153.29322%" id="linearGradient-g54bv9a5_p-6">
            <stop stop-color="#000000" stop-opacity="0" offset="0%"></stop>
            <stop stop-color="#000000" offset="100%"></stop>
        </linearGradient>
        <linearGradient x1="-28.1588448%" y1="49.7005988%" x2="93.3574007%" y2="49.7005988%" id="linearGradient-g54bv9a5_p-7">
            <stop stop-color="#19A3FF" stop-opacity="0" offset="0%"></stop>
            <stop stop-color="#0E5FC1" offset="100%"></stop>
        </linearGradient>
        <linearGradient x1="-28.1588448%" y1="49.7005988%" x2="93.3574007%" y2="49.7005988%" id="linearGradient-g54bv9a5_p-8">
            <stop stop-color="#000000" stop-opacity="0" offset="0%"></stop>
            <stop stop-color="#000000" offset="100%"></stop>
        </linearGradient>
        <linearGradient x1="-70.1428571%" y1="56.7679847%" x2="81.4285714%" y2="48.6071684%" id="linearGradient-g54bv9a5_p-9">
            <stop stop-color="#002061" stop-opacity="0" offset="0%"></stop>
            <stop stop-color="#00143D" offset="100%"></stop>
        </linearGradient>
        <linearGradient x1="-70.1428571%" y1="56.7679847%" x2="81.4285714%" y2="48.6071684%" id="linearGradient-g54bv9a5_p-10">
            <stop stop-color="#000000" stop-opacity="0" offset="0%"></stop>
            <stop stop-color="#000000" offset="100%"></stop>
        </linearGradient>
        <linearGradient x1="93.5810811%" y1="-20.0330454%" x2="-18.3880309%" y2="159.91149%" id="linearGradient-g54bv9a5_p-11">
            <stop stop-color="#00287A" stop-opacity="0" offset="0%"></stop>
            <stop stop-color="#00287A" offset="100%"></stop>
        </linearGradient>
        <linearGradient x1="93.5810811%" y1="-20.0330454%" x2="-18.3880309%" y2="159.91149%" id="linearGradient-g54bv9a5_p-12">
            <stop stop-color="#000000" stop-opacity="0" offset="0%"></stop>
            <stop stop-color="#000000" offset="100%"></stop>
        </linearGradient>
        <linearGradient x1="89.0760346%" y1="-12.1924562%" x2="-14.9663138%" y2="153.370789%" id="linearGradient-g54bv9a5_p-13">
            <stop stop-color="#00287A" stop-opacity="0" offset="0%"></stop>
            <stop stop-color="#00287A" offset="100%"></stop>
        </linearGradient>
        <linearGradient x1="89.0760346%" y1="-12.1924562%" x2="-14.9663138%" y2="153.370789%" id="linearGradient-g54bv9a5_p-14">
            <stop stop-color="#000000" stop-opacity="0" offset="0%"></stop>
            <stop stop-color="#000000" offset="100%"></stop>
        </linearGradient>
        <linearGradient x1="63.2957661%" y1="34.0558238%" x2="26.7438319%" y2="77.8618733%" id="linearGradient-g54bv9a5_p-15">
            <stop stop-color="#00287A" stop-opacity="0" offset="0%"></stop>
            <stop stop-color="#00287A" offset="100%"></stop>
        </linearGradient>
        <linearGradient x1="63.2957661%" y1="34.0558238%" x2="26.7438319%" y2="77.8618733%" id="linearGradient-g54bv9a5_p-16">
            <stop stop-color="#000000" stop-opacity="0" offset="0%"></stop>
            <stop stop-color="#000000" offset="100%"></stop>
        </linearGradient>
    </defs>
    <g id="CI/CD-services-round-up" stroke="none" stroke-width="1" fill="none" fill-rule="evenodd">
        <g id="Group" fill-rule="nonzero">
            <g transform="translate(59.15, 2.96)" fill="#000000">
                <polygon id="Path" points="-7.10542736e-15 0.7 5.25 0.7 5.25 24.05 1.43920159e-30 24.05 1.43920159e-30 0.7"></polygon>
                <path d="M9.44,24.05 L9.44,6.73 L14.28,6.73 L14.28,9.13 C15.2,7.49 17.25,6.25 19.75,6.25 C21.61,6.25 23.23,6.88 24.52,8.11 C25.82,9.34 26.48,11.14 26.48,13.45 L26.48,24.04 L21.52,24.04 L21.52,14.75 C21.52,12.22 20.19,10.8 18.14,10.8 C15.9,10.8 14.41,12.44 14.41,14.88 L14.41,24.05 L9.45,24.05 L9.44,24.05 Z" id="Path"></path>
                <path d="M28.79,21.33 L31.22,18.11 C32.71,19.63 34.35,20.39 36.18,20.39 C37.41,20.39 38.3,19.85 38.3,19 C38.3,18.49 37.95,18.08 37.23,17.74 C36.98,17.61 36.28,17.36 35.18,16.98 C34.07,16.57 33.32,16.28 32.94,16.1 C30.89,15.12 29.84,13.57 29.84,11.52 C29.84,9.94 30.44,8.64 31.67,7.66 C32.9,6.68 34.55,6.17 36.6,6.17 C39.1,6.17 41.18,6.96 42.86,8.57 L40.55,11.79 C39.25,10.72 37.89,10.18 36.5,10.18 C35.39,10.18 34.7,10.69 34.7,11.41 C34.7,12.04 35.21,12.52 36.25,12.86 C38.11,13.46 39.47,13.97 40.36,14.44 C42.32,15.48 43.3,16.94 43.3,18.86 C43.3,20.47 42.64,21.83 41.34,22.91 C40.04,23.98 38.34,24.52 36.19,24.52 C33.12,24.52 30.66,23.45 28.79,21.33 L28.79,21.33 Z" id="Path"></path>
                <path d="M58.81,23.07 C57.32,24.02 55.55,24.49 53.5,24.49 C49.36,24.49 47.31,22.15 47.31,17.51 L47.31,10.84 L44.56,10.84 L44.56,6.73 L47.34,6.73 L47.34,0.6 L52.27,0.6 L52.27,6.73 L57.83,6.73 L57.83,10.84 L52.27,10.84 L52.27,17.03 C52.27,18.99 53.03,19.97 54.58,19.97 C55.37,19.97 56.32,19.69 57.42,19.12 L58.81,23.07 Z" id="Path"></path>
                <path d="M73.57,6.73 L78.25,6.73 L78.25,24.05 L73.57,24.05 L73.57,22.28 C72.08,23.77 70.31,24.49 68.23,24.49 C65.76,24.49 63.71,23.61 62.1,21.87 C60.49,20.1 59.7,17.92 59.7,15.3 C59.7,12.68 60.52,10.56 62.13,8.85 C63.74,7.14 65.8,6.29 68.23,6.29 C70.32,6.29 72.09,7.05 73.57,8.57 L73.57,6.74 L73.57,6.73 Z M65.89,18.65 C66.74,19.54 67.79,19.98 69.08,19.98 C70.37,19.98 71.42,19.54 72.27,18.62 C73.12,17.7 73.57,16.63 73.57,15.36 C73.57,14.09 73.13,13.02 72.27,12.14 C71.42,11.26 70.37,10.81 69.08,10.81 C67.79,10.81 66.74,11.25 65.89,12.14 C65.07,13.02 64.66,14.1 64.66,15.36 C64.66,16.62 65.07,17.73 65.89,18.65 Z" id="Shape"></path>
                <path d="M98.19,8.91 C99.87,10.65 100.69,12.8 100.69,15.39 C100.69,17.98 99.87,20.16 98.22,21.9 C96.58,23.64 94.52,24.49 92.06,24.49 C89.97,24.49 88.24,23.7 86.88,22.12 L86.88,24.05 L82.08,24.05 L82.08,2.66453526e-15 L87.04,2.66453526e-15 L87.04,8.44 C88.4,7.02 90.07,6.29 92.07,6.29 C94.5,6.29 96.56,7.18 98.2,8.91 L98.19,8.91 Z M94.4,12.17 C93.58,11.29 92.54,10.84 91.24,10.84 C89.94,10.84 88.9,11.28 88.05,12.17 C87.23,13.02 86.82,14.1 86.82,15.36 C86.82,16.62 87.23,17.73 88.05,18.62 C88.9,19.5 89.95,19.95 91.24,19.95 C92.53,19.95 93.58,19.51 94.4,18.62 C95.22,17.74 95.63,16.66 95.63,15.36 C95.63,14.06 95.22,13.02 94.4,12.17 L94.4,12.17 Z" id="Shape"></path>
                <path d="M103.4,16.63 L103.4,6.73 L108.36,6.73 L108.36,16.65 C108.36,18.64 109.53,19.94 111.52,19.94 C113.51,19.94 114.68,18.64 114.68,16.65 L114.68,6.73 L119.64,6.73 L119.64,16.62 C119.64,21.65 116.57,24.49 111.52,24.49 C106.47,24.49 103.4,21.58 103.4,16.62 L103.4,16.63 Z" id="Path"></path>
                <path d="M136.33,6.73 L140.85,6.73 L140.85,22.34 C140.85,25.12 139.93,27.33 138.1,28.95 C136.3,30.59 133.96,31.42 131.15,31.42 C128.15,31.42 125.43,30.57 123.06,28.83 L124.96,25.16 C126.95,26.52 128.97,27.18 130.97,27.18 C134.26,27.18 136.12,25.28 136.12,22.72 L136.12,22.06 C134.82,23.42 133.12,24.08 131,24.08 C128.44,24.08 126.39,23.26 124.77,21.58 C123.16,19.9 122.37,17.79 122.37,15.23 C122.37,12.67 123.22,10.46 124.9,8.78 C126.58,7.1 128.69,6.28 131.19,6.28 C133.24,6.28 134.98,7.01 136.34,8.43 L136.34,6.72 L136.33,6.73 Z M131.78,10.84 C130.52,10.84 129.47,11.25 128.62,12.1 C127.77,12.92 127.36,13.96 127.36,15.26 C127.36,16.56 127.77,17.63 128.62,18.48 C129.47,19.33 130.52,19.78 131.78,19.78 C133.04,19.78 134.09,19.37 134.91,18.52 C135.76,17.67 136.17,16.56 136.17,15.26 C136.17,12.7 134.31,10.84 131.78,10.84 Z" id="Shape"></path>
            </g>
            <g id="Path">
                <g transform="translate(2.79, 12.32)">
                    <polygon fill="#000000" points="6.26 18.35 20.74 0.01 14.51 0.01 0.02 18.35"></polygon>
                    <polygon fill="url(#linearGradient-g54bv9a5_p-2)" opacity="0.2" points="6.26 18.35 16.01 6.03 9.75 6.03 -2.66453526e-15 18.35"></polygon>
                    <path d="M27.04,0.01 L12.56,18.35 L26.99,18.35 C29.46,18.35 31.79,17.22 33.32,15.28 L45.38,-1.77635684e-15 L27.04,-1.77635684e-15 L27.04,0.01 Z" fill="#000000"></path>
                    <path d="M27.04,0.01 L12.56,18.35 L26.99,18.35 C29.46,18.35 31.79,17.22 33.32,15.28 L45.38,-1.77635684e-15 L27.04,-1.77635684e-15 L27.04,0.01 Z" fill="url(#linearGradient-g54bv9a5_p-4)"></path>
                    <polygon fill="#000000" points="12.56 18.35 27.04 0.01 20.74 0.01 6.26 18.35"></polygon>
                    <polygon fill="url(#linearGradient-g54bv9a5_p-6)" opacity="0.35" points="12.56 18.35 27.04 0.01 20.74 0.01 6.26 18.35"></polygon>
                </g>
                <g>
                    <polygon fill="url(#linearGradient-g54bv9a5_p-8)" opacity="0.8" points="12.54 18.35 11.23 20.02 23.77 20.02 25.08 18.35"></polygon>
                    <path d="M35.64,12.33 L33.31,15.28 C31.78,17.22 29.45,18.35 26.98,18.35 L25.08,18.35 L23.77,20.02 L27.16,20.02 C30.05,20.02 32.73,18.72 34.52,16.45 L37.77,12.33 L35.64,12.33 L35.64,12.33 Z" fill="url(#linearGradient-g54bv9a5_p-10)" opacity="0.8"></path>
                    <polygon fill="#000000" points="6.24 18.35 20.72 0 14.49 0 0 18.35"></polygon>
                    <polygon fill="url(#linearGradient-g54bv9a5_p-12)" opacity="0.2" points="6.24 18.35 20.72 0 14.49 0 0 18.35"></polygon>
                    <polygon fill="#000000" points="12.54 18.35 27.02 0 20.72 0 6.24 18.35"></polygon>
                    <polygon fill="url(#linearGradient-g54bv9a5_p-14)" opacity="0.35" points="12.54 18.35 27.02 0 20.72 0 6.24 18.35"></polygon>
                    <g transform="translate(12.54, 0)">
                        <path d="M20.77,15.28 L32.83,0 L14.48,0 L0,18.35 L14.43,18.35 C16.9,18.35 19.23,17.22 20.76,15.28 L20.77,15.28 Z" fill="#000000"></path>
                        <path d="M20.77,15.28 L32.83,0 L14.48,0 L0,18.35 L14.43,18.35 C16.9,18.35 19.23,17.22 20.76,15.28 L20.77,15.28 Z" fill="url(#linearGradient-g54bv9a5_p-16)" opacity="0.5"></path>
                    </g>
                </g>
            </g>
        </g>
    </g>
</svg>