
<svg width="4962.3646px" height="1000px" viewBox="0 0 4962.3646 1000" version="1.1" xmlns="http://www.w3.org/2000/svg" xmlns:xlink="http://www.w3.org/1999/xlink">
    <g id="CI/CD-services-round-up" stroke="none" stroke-width="1" fill="none" fill-rule="evenodd">
        <g id="Group" fill="#000000" fill-rule="nonzero">
            <g id="Wordmark" transform="translate(1821.4144, 32.1316)">
                <polygon id="Path" points="4.54747351e-13 2.27373675e-13 188.0756 2.27373675e-13 507.8732 578.4884 827.6662 0.0005 1011.671 0.0005 1011.671 950.5644 858.2238 950.5644 858.2238 222.0284 577.8072 726.5069 433.8638 726.5069 153.4472 222.0284 153.4472 950.5644 4.54747351e-13 950.5644"></polygon>
                <path d="M1506.6284,967.5428 C1435.55847,967.5428 1373.09337,951.813067 1319.2331,920.3536 C1265.3627,888.8942 1223.37937,845.326733 1193.2831,789.6512 C1163.17643,733.9728 1148.1316,670.1492 1148.1316,598.1804 C1148.1316,525.307067 1162.84247,460.8042 1192.2642,404.6718 C1221.68587,348.5512 1262.53777,304.642667 1314.8199,272.9462 C1367.10343,241.27 1427.1926,225.427567 1495.0874,225.4189 C1562.5284,225.4189 1620.58127,241.374067 1669.246,273.2844 C1717.8962,305.2034 1755.35183,349.903933 1781.6129,407.386 C1807.8609,464.8766 1820.9936,532.3219 1820.9936,609.7219 L1820.9936,651.8119 L1300.2213,651.8119 C1309.7293,709.762167 1333.1548,755.3674 1370.4978,788.6276 C1407.84073,821.899333 1455.02843,838.533767 1512.0609,838.5309 C1557.77603,838.5309 1597.15673,831.741267 1630.203,818.162 C1663.2406,804.5828 1694.2477,783.9885 1723.2243,756.3791 L1804.6997,856.1856 C1723.6665,930.429467 1624.3094,967.5428 1506.6284,967.5428 Z M1618.6615,403.6484 C1586.51703,370.836333 1544.4208,354.427367 1492.3728,354.4215 C1441.67173,354.4215 1399.23587,371.1715 1365.0652,404.6715 C1330.883,438.1687 1309.26837,483.2074 1300.2213,539.7876 L1673.6591,539.7876 C1669.12837,481.8462 1650.79583,436.466467 1618.6615,403.6484 Z" id="Shape"></path>
                <path d="M2007.0487,368.0096 L1865.8193,368.0096 L1865.8193,242.3973 L2007.0487,242.3973 L2007.0487,34.6331 L2155.0633,34.6331 L2155.0633,242.3973 L2369.6171,242.3973 L2369.6171,368.0096 L2155.0633,368.0096 L2155.0633,686.4455 C2155.0633,739.4011 2164.11613,777.196367 2182.2218,799.8313 C2200.3188,822.4721 2231.3259,833.788133 2275.2431,833.7794 C2294.6971,833.7794 2311.2188,832.987433 2324.8082,831.4035 C2338.3874,829.8253 2353.3237,827.6748 2369.6171,824.952 L2369.6171,949.203 C2351.0242,954.581694 2332.0813,958.666957 2312.9242,961.4295 C2291.00578,964.654822 2268.87757,966.243182 2246.7232,966.183135 C2086.93293,966.183135 2007.04143,878.821 2007.0487,704.1002 L2007.0487,368.0096 Z" id="Path"></path>
                <path d="M3140.9502,950.5644 L2995.6497,950.5644 L2995.6497,851.4344 C2969.8483,888.5562 2937.0318,917.1859 2897.2002,937.3235 C2857.36427,957.4583 2812.09867,967.531633 2761.4034,967.5435 C2698.9398,967.5435 2643.60397,951.585433 2595.3959,919.6693 C2547.18783,887.7589 2509.27837,843.853233 2481.6675,787.9523 C2454.05383,732.0485 2440.2491,668.112167 2440.2491,596.1433 C2440.2491,523.7207 2454.28213,459.668767 2482.3482,403.9875 C2510.4082,348.317767 2549.22237,304.637567 2598.7907,272.9469 C2648.35577,241.2707 2705.27557,225.428267 2769.5501,225.4196 C2817.98343,225.4196 2861.43817,234.8135 2899.9143,253.6013 C2937.87122,271.961929 2970.74386,299.354564 2995.6497,333.3772 L2995.6497,242.398 L3140.9502,242.398 L3140.9502,950.5644 Z M2992.9358,490.2228 C2977.08447,449.936133 2952.075,418.135633 2917.9072,394.8213 C2883.725,371.512767 2844.23167,359.8586 2799.4272,359.8586 C2736.0488,359.8586 2685.579,381.132167 2648.0178,423.6793 C2610.44073,466.2293 2591.65583,523.717067 2591.6631,596.1426 C2591.6631,669.024933 2609.76873,726.738267 2645.98,769.2826 C2682.187,811.832667 2731.29977,833.1034 2793.3183,833.1034 C2839.02897,833.1034 2879.7667,821.3334 2915.5315,797.7934 C2951.28317,774.268067 2977.0846,742.583133 2992.9358,702.7386 L2992.9358,490.2228 Z" id="Shape"></path>
            </g>
            <g id="Symbol">
                <path d="M1080,0 C956.6089,0 860.1522,92.936 772.836,210.9931 C652.8473,58.2153 552.5,0 432.4138,0 C187.5862,0 0,318.6207 0,655.8621 C0,866.8965 102.0956,1000 273.1035,1000 C396.184,1000 484.7035,941.9741 642.069,666.8966 C642.069,666.8966 707.6663,551.0553 752.7939,471.258 C768.607233,496.789867 785.262133,524.301567 802.7586,553.7931 L876.5517,677.931 C1020.2989,918.4789 1100.39,1000 1245.5172,1000 C1412.1131,1000 1504.8272,865.0767 1504.8272,649.6552 C1504.8272,296.5517 1313.0118,0 1080,0 Z M522.069,592.4138 C394.4828,792.4138 350.3448,837.2414 279.3103,837.2414 C206.2069,837.2414 162.7586,773.063 162.7586,658.6207 C162.7586,413.7931 284.8276,163.4483 430.3448,163.4483 C509.1461,163.4483 574.9987,208.9583 675.8672,353.3614 C580.088,500.2723 522.069,592.4138 522.069,592.4138 Z M1003.5973,567.2358 L915.3673,420.0877 C891.4905,381.255567 868.544367,345.512233 846.5289,312.8577 C926.0489,190.1224 991.6424,128.9658 1069.655,128.9658 C1231.7241,128.9658 1361.3793,367.5865 1361.3793,660.6899 C1361.3793,772.4141 1324.7858,837.2417 1248.9654,837.2417 C1176.2949,837.2417 1141.5787,789.2474 1003.5973,567.2358 Z" id="Shape"></path>
            </g>
        </g>
    </g>
</svg>